<svg width="1200" height="800" viewBox="0 0 1200 800" fill="none" xmlns="http://www.w3.org/2000/svg">
  <defs>
    <linearGradient id="gradC" x1="0" y1="0" x2="1200" y2="800" gradientUnits="userSpaceOnUse">
      <stop stop-color="#AD3E28"/>
      <stop offset="1" stop-color="#F7AF62"/>
    </linearGradient>
  </defs>
  <rect width="1200" height="800" fill="url(#gradC)"/>
  <rect x="120" y="120" width="960" height="560" rx="34" fill="#FFF6EB" fill-opacity="0.88"/>
  <rect x="220" y="220" width="420" height="360" rx="26" fill="#D35F2E"/>
  <path d="M240 520C280 430 340 370 430 340C520 310 570 330 620 360" stroke="#FFD5B0" stroke-width="18"/>
  <circle cx="520" cy="430" r="80" fill="#FFE2C7" fill-opacity="0.4"/>
  <rect x="700" y="250" width="290" height="32" rx="11" fill="#F4DBC0"/>
  <rect x="700" y="312" width="250" height="32" rx="11" fill="#F4DBC0"/>
  <rect x="700" y="374" width="290" height="32" rx="11" fill="#F4DBC0"/>
  <rect x="700" y="436" width="220" height="32" rx="11" fill="#F4DBC0"/>
  <rect x="700" y="498" width="270" height="32" rx="11" fill="#F4DBC0"/>
</svg>
