<svg width="1200" height="800" viewBox="0 0 1200 800" fill="none" xmlns="http://www.w3.org/2000/svg">
  <defs>
    <linearGradient id="gradB" x1="100" y1="80" x2="1070" y2="760" gradientUnits="userSpaceOnUse">
      <stop stop-color="#4D376F"/>
      <stop offset="1" stop-color="#C493F7"/>
    </linearGradient>
  </defs>
  <rect width="1200" height="800" fill="url(#gradB)"/>
  <g opacity="0.35" stroke="#F7E8FF" stroke-width="3">
    <path d="M130 220C240 170 310 160 390 180C480 210 550 250 700 230C860 200 960 140 1060 110"/>
    <path d="M120 360C280 280 450 270 590 300C740 340 870 350 1080 290"/>
    <path d="M120 510C280 430 460 420 650 450C840 480 970 520 1080 520"/>
  </g>
  <rect x="130" y="160" width="940" height="500" rx="34" fill="#FFF8FF" fill-opacity="0.84"/>
  <rect x="220" y="250" width="400" height="340" rx="26" fill="#6D4D9B"/>
  <circle cx="420" cy="425" r="112" fill="#F3E9FF" fill-opacity="0.36"/>
  <rect x="675" y="260" width="300" height="28" rx="10" fill="#E9D8FF"/>
  <rect x="675" y="315" width="240" height="28" rx="10" fill="#E9D8FF"/>
  <rect x="675" y="370" width="270" height="28" rx="10" fill="#E9D8FF"/>
  <rect x="675" y="425" width="220" height="28" rx="10" fill="#E9D8FF"/>
  <rect x="675" y="480" width="290" height="28" rx="10" fill="#E9D8FF"/>
</svg>
